<?xml version="1.0" encoding="utf-8"?>
<!-- Generator: Adobe Illustrator 18.0.0, SVG Export Plug-In . SVG Version: 6.00 Build 0)  -->
<!DOCTYPE svg PUBLIC "-//W3C//DTD SVG 1.1//EN" "http://www.w3.org/Graphics/SVG/1.1/DTD/svg11.dtd">
<svg xmlns="http://www.w3.org/2000/svg" xmlns:xlink="http://www.w3.org/1999/xlink" version="1.1" id="Слой_2" x="0px" y="0px" viewBox="328 98 932 1204" enable-background="new 328 98 932 1204" xml:space="preserve">
<path fill="#000000" stroke="" stroke-width="2" stroke-miterlimit="10" d="M1219.9,737.6c-13-17.3-22.5-36.4-34.4-54.4  c-5.2-8.1-85.5-147.4-91.6-156.3c-3.4-5-49.7-85.5-103-121.3c-20.3-13.6-111.8-88.9-197.3-87.5c-19.1,0.3-41.5,7.9-57.2,20.6  c-18.2,14.6-31.1,74.3-37,64c-4-7.1-27.4-24.1-32.3-30.6c-5.6-7.4-16.9-24.2-16.7-38.5c0.1-6,0.5-8.8,5.8-11.5  c8.1-4.2,16.4-6.2,24.4-11.1c19.7-12.3,46.3-45.3,43.8-73.7c-0.3-4,3.2-51.2-23.2-88c43.3,25.6,65.2,44.4,110.1,83.1  c51.8,44.5,30.4,18.8,6.9-5.6c-23.5-24.4-119.6-87.4-119.6-87.4s78.7,32.6,125.6,65.6c37.2,26.2,22.6,3.4,0-9  c-22.6-12.4-36.8-19.3-106.3-52.7c-18.2-8.8-33.6-15.8-46.8-21.2c-4.1-2.4-8.7-4.7-13.5-6.6c-11.2-4.6-17.6-7.9-29.2-9.9  c-4.7-0.8-11.3-2.7-23-1.3c-0.1,0-0.1,0-0.2,0l0,0c-13.7,1.7-34.5,8.1-67.3,26.2c-6.8,3.7-25,18-26.1,26.1c0,0-167,87-177.5,106.3  c18.3,2,148.9-31,158.7-33.4c22.5-5.6,44.4-9.1,66.9-16.6c9.8-3.3,22.6-5.1,32.1-7.5c10.2-2.6,17.7-7.9,28.3-7.9  c9.4,0,18.6-0.2,24.9,7.8c4.8,6.3,8.4,20,6.4,28.1c-2.3,9.3-17.1,12.3-24.9,14.8c-9.7,3-18.8,5.6-28.3,10.2  c-22.3,11.1-31.3,60.3-32.1,64.2c-11.5,48.9,21.7,142,29.9,167.3c-1,13.1-2,23.7-2.3,25c2.9-4.2,4.4-9.6,5.8-14.9  c2.3,6.1,5.1,12,8.2,17.7c-0.2,7.1-1.4,18-0.9,22.9c1.6-4.8,2.4-12.4,3.8-17.5c0.9,1.5,1.6,2.9,2.5,4.4c1,1.6,1.9,3.3,2.8,4.9  c1.1,12.7,1.6,28.9,2.8,30.4c0.3-3.3,1.2-14.5,1.7-22.9c0.9,1.3,1.7,2.5,2.6,3.7c0.2,0.2,0.3,0.4,0.5,0.7c-1.2,23-3.7,63.3,0.5,79.4  c-1.5-12.6,1.3-51.7,3.3-74.8c2.1,2.5,4.2,4.9,6.3,7.4c2.4,13.2,6.5,44.5-0.4,101.3c4.6-5.2,7.5-14.8,7.9-21.7  c2.1-27.9,0.2-63.3-0.2-70.6c2,2.3,3.9,4.4,5.9,6.5c2.6,19.3,8.3,63.2,8.6,76.4c0.4,17.1,10.2,56.1,5.6,6.9  c-3-31.8-6.6-61.1-8.8-77.9c0.2,0.2,0.4,0.4,0.7,0.7c4.6,26.9,13.6,80.9,14.5,91.8c1.3,14.6,5.6,16.7,0-21.9  c-3.4-23.4-6.2-48.1-7.8-63.9c0.3,0.3,0.7,0.5,1,0.9c5.6,36,18.4,116.4,24,131.7c7.3,19.7,14.6,28.3,6.9,0  c-7.2-26.2-19.8-92.3-24.1-126c0.7,0.5,1.4,1.1,2.1,1.6c6.1,29.5,19.5,98.3,30.1,111.5c15,18.8,11.5,20.9,0-13  c-10.8-31.6-23.1-74.3-26.4-95.8c2.7,2.1,5.4,4,8.2,6c10.9,37,29.6,101.2,32.3,115.5c3.8,20.6,7.7,7.3-1.7-26.6  c-6.1-22-17.1-60.3-24-84.4c0.3,0.2,0.7,0.4,0.9,0.5c12.4,38.3,38.1,114.9,52.6,142.1c19.7,36.8,18,31.3,5.6,2.6  c-11.7-26.9-40.6-109-50.2-140.5c0.5,0.2,1,0.4,1.5,0.7c11.2,29.5,43.8,120.5,53.4,137.6c12.4,22.3,21.2,37.7,4.6-3.4  c-15.1-37.5-38.4-95.7-48.3-130.8c2.5,0.8,5,1.4,7.6,2c7.4,16.4,17.1,39.4,24.6,56.8c16.2,37.7,33.9,78.4,37.7,90.8  c3.8,12.4,5.6,1.3-16.7-52.3c-6.8-16.2-13.6-32.6-19.8-47.3c19.1,42.1,44.8,93.8,63.2,109.5c32.6,28.1-8.2-6.2-36.4-64  c-19.3-39.4-33.3-73.6-40.4-91.5c0.8,0.1,1.6,0.2,2.4,0.3c18,32.3,63.3,113.8,76.9,136.9c17.1,29.2,32.6,43.2,12.4,9.8  c-16.4-27.3-64.6-114.4-82.3-145.8l0,0c16.4,26.8,57.7,92.5,66.5,107.3c11.1,18.8,24,27.9,8.6,4.7c-12.5-18.7-52.8-85.8-68.6-111.3  c4.2,0.3,8.6,0.5,13,0.5c16.4,26.2,51.8,82.2,68.1,101.4c21.5,25.3,39.9,36.8,15.5,9.5c-2.5-2.8-5.3-6.2-8.3-10  c0.7,0.7,1.4,1.1,2.1,1.2c0,0,3.3,0.7,8.7,1.9c6.1,10.8,15.5,27,20.7,33.5c8.2,10.2,9,3,19.7,47.6s25.3,115.6,24.4,127.6  c-0.9,12-3.4,14.6-4.7,28.7s0.4,18,0,33.9c-0.4,15.9-16.7,145.6-26.6,188.9c-7.7,34-14.2,52.9-18.4,62c-9.5,0.2-18.8,0.4-28.3-0.3  c-15.6-1.3-30.8,2.2-46.3,2.2c-3.5,0-6.6,0.4-10.2,0.4s-6.1-1-9.5-1.9c-6.1-1.5-13.4-0.5-17.9,4.5c-1.5,1.7-4.1,5.9-3.5,8.4  c3.6-3.7,9.6-9.4,14.9-7.5c3.2,1.1,5.3,1.3,5.6,5c0.2,3.2,0.4,6.1,4.2,6.4c3,0.3,6.2-1.2,9.5-1.3c3.5,0,6.5-1,9.8-1.3  c3.4-0.3,6.9,0.1,10.2,0.4c0.9,0.1,4,0.2,4.6,1c1.2,1.3-0.3,2-0.9,3.3c-6.6,0.5-13.8-0.3-20.5,0.2c-7.1,0.5-14.4,0.4-21.5-0.2  c-3.5-0.3-6.4-1.3-9.5-2.4c-2.8-1-7.4-1-10.2-0.9c-4.1,0.1-7.9,5.3-10.2,9.5c-1.6,0.1-3.4,0.1-5.1,0.2c-3.7,0.2-6.5-0.1-10.2-0.4  c-3.4-0.2-6.5-1.6-9.8-1.7c-2,0-2.9,0.7-4.7,1c-1.9,0.3-3.6-0.1-5.6-0.1c-3.4,0-6.9-0.1-9.8,1.4c-5.9,2.9-9.7,6.9-9.9,13.5  c5.2-5.9,12.6-10.3,20.5-7.5c0.8,2.8-1.2,5.3,2.6,7.2c2.6,1.2,7.8,0.7,10.8,0.4c6.8-0.7,14-3.9,20.7-2.6c7.1,1.4,13.9,1.5,21.3,1  c7-0.5,14.5-1.7,21.5-3c11.4-2.1,25.4-3.7,37.2-1.6c-0.1,1.2,0,2.5,0.9,3.3c-5.4,0.1-6.3,7.6-6.4,11.5c2.2-2.6,3.3-6.8,7.3-6.8  c2.7,0,2.1,4.2,4.7,4.7c7.1,1.1,18.1-2.1,24.5-4.6c6.2-2.5,12.6-5.4,18.7-7.7c3.6-1.3,6.5-3.5,9.9-5.1c2.4-1.2,5.8,0,8.8,0.2  c3.8,0.3,7.7-0.7,11.5-0.8c4-0.1,7.9-0.4,12-0.4c7.7,0,15.5,0,23.1,0c3.4,0,6.6,0.8,9.9,1.3c3.7,0.7,6.8,0.2,10.2-0.4  c3-0.5,5.4-1.3,6-4.7c0.4-2.5,0.4-2.5-4.1-6.6c3.9-2.8,9.7-1.9,13.1,1.1c4,3.5,4.8,7.3,5.3,12.4c2-0.7,2.5-7.3,2-9.3  c-1-3.5-3.9-6.3-6.6-8.4c-2.1-1.5-4.4-2.7-6.8-3.3c7.4-0.2,14.8-1,22-2.2c5.2-0.9,10.6-0.3,15.9-0.9c4.4-0.4,8.8-0.9,13.3-0.9  c4.2,0,9.1,0.5,12.8-1c5-2.1,1.6-6.5-0.4-9.7c8.5-3,18.5,5,19.6,7.2c1.1,2.1,0.2,4.7,1.4,6.8c1.9-0.7,1.3-8.4,0.5-9.9  c-1.4-2.8-14.3-17-28.9-6.4c-2.4,0.8-5.4,0.8-8.1,0.5c-2.9-0.2-5.6,0-8.6,0.4c-6.9,1-13.5,0.4-20.5,0.4c-6.4,0-13,0-19.4,0  c-0.2,0-0.3,0-0.5,0c0.9-5.1,1.9-13.5,2.3-27c0.9-27,3.4-117.4,5.6-151.3s10.7-82.6,13.3-99.4c2.6-16.7,4.7-26.6,2.6-31.7  c-2.2-5.1-22.6-52.3-31.7-88.2c-9-35.9-18.8-72.4-19.3-91.7c-0.1-3.3-0.1-6.3,0-9c1.4,0.3,2.3,0.7,2.6,0.9  c9,4.6,17.3,10.7,25.8,15.9c2.8,1.7,17,9,19.3,8.4c3.4-0.9,4.1-3.8,4.1-3.8s7.2,8.1,11.8,8.2c1.1-2,1.6-3.9,1.5-6.2  c4.6,3.2,30.1,14.6,30.1,14.6s7.7,12.2,9.6,16.8c3.3,8.3,24.1,38.9,30.2,45.7c10.7,11.9,16.2,29.3,23.3,43.6  c4,8.3,20.5,26.9,22.6,29.4c2.2,2.4,3.8,5.9,6.1,7.8c0.8-2.6,0.2-5.8,1.5-8.2c3.7-0.5,2.4-5.3,3.7-7.6c1,1,4.2,2.8,5.7,0.9  c0.8-1-8.4-63.3-10.7-72.5c-2.2-8.5-1.7-16.6-5.9-24.3c2.5,1.6,4.9-0.7,6.5-2.6c2.2-2.8,1.6-5.9,0.8-9.1c1.7,3.7,3.2,5.8,6.8,8.2  c1-2.7,1.1-6.1,2.7-8.6c3.3,2.3,6,5.6,9.5,7.4c3.6,2,7.5,4,11.4,5.4c4.1,1.5,11.9,5.4,11.9,5.4s5.1,7.3,8.8,10.6  c7.5,6.6,13.7,13.4,22.5,17.9c7.8,4,24.9,11.1,24.9,11.1s10.9,10.2,19.4,11.4c4.1,0.5,10.7,1,13.4-2.6c2.4-3.2,1.5-9.3,1.4-13.3  c0.9,0.5,1.6,0,2.5,0.3c0.9-2.1,1.5-6.9,0.4-9.3c1.3,2.1,3.3,4.4,6,3.4C1256.5,845,1240.9,765.9,1219.9,737.6z M744.4,1272.2  c-3.2,0.4-7,0-10.2,0.1c-1,0-1.9,0-2.8,0.1c2-1.7,3.9-4,5.4-4.8C740.6,1265.5,745.9,1266.9,744.4,1272.2z M939.7,1258.9  c-3,2.3-4.5,3.2-8.5,3.2c-3.5,0-6.5,0.7-9.8,1.2c-3.5,0.5-7.1,0.5-10.7,0.5s-6.9,0.9-10.2,1.2c-4.5,0.3-9.7,0.8-14,0.5  c15.4-0.1,29.2-10.7,44.9-9.5c4.2,0.3,8.6,0.5,13.1,0.5C942.8,1256.9,941.1,1257.7,939.7,1258.9z M933.8,1167.8  c-3.4,42.4-13,63.5-18.3,72.1c-1.7,0.8-3.4,1.5-4.9,2c-3.5,1-7.1,1.9-10.8,2.7c-4.9,1.1-9.9,1.6-14.9,1.9c1-11.2,3-27.5,7.7-51.2  c11.4-58.8,40-192.2,45.2-217.6c1.4,11.4,2.8,24.3,3,35.9C941.6,1038.4,936.3,1135.2,933.8,1167.8z M934.7,891.8  c2.3,11.8,1.9,26.6,1.1,38.5c-0.1-0.2-0.2-0.5-0.2-0.8c-6-18-32.1-110.1-33.9-130.2c-1.7-20.1-1.7-39.9-1.7-39.9  S930.8,872.1,934.7,891.8z M771.3,620c1.3-0.1,2.1-0.2,2.5-0.1c7.9,11,20.9,26.5,39.6,41.8c0.5,6.1,2.3,12.5,3.8,18.2  c-14.8-17.3-35.9-43-46.3-59.9C771,620.1,771.2,620.1,771.3,620z M801.6,639.9c4.7,2.7,10,4.9,13.9,8.7c-0.9,1.6-1.4,3.5-1.7,5.3  c-7-4.8-13.2-10.2-20.6-19.7C796,636,798.7,638.1,801.6,639.9z M762.9,620.7L762.9,620.7c0.7,0,1.3-0.1,1.9-0.1  c11.8,14.3,39,49.4,54.8,69.9c1.1,5.2,2.3,10.7,4.6,15.5c1.1,2.5,3.3,8.7,5.9,12.8C807,689.4,774.2,639,762.9,620.7z"/>
</svg>
